<?xml version="1.0" standalone="no"?><svg xmlns="http://www.w3.org/2000/svg" viewBox="0 0 1440 320"><path fill="#000000" fill-opacity="1" d="M0,288L21.8,256C43.6,224,87,160,131,149.3C174.5,139,218,181,262,181.3C305.5,181,349,139,393,133.3C436.4,128,480,160,524,170.7C567.3,181,611,171,655,149.3C698.2,128,742,96,785,69.3C829.1,43,873,21,916,64C960,107,1004,213,1047,266.7C1090.9,320,1135,320,1178,282.7C1221.8,245,1265,171,1309,165.3C1352.7,160,1396,224,1418,256L1440,288L1440,0L1418.2,0C1396.4,0,1353,0,1309,0C1265.5,0,1222,0,1178,0C1134.5,0,1091,0,1047,0C1003.6,0,960,0,916,0C872.7,0,829,0,785,0C741.8,0,698,0,655,0C610.9,0,567,0,524,0C480,0,436,0,393,0C349.1,0,305,0,262,0C218.2,0,175,0,131,0C87.3,0,44,0,22,0L0,0Z"></path></svg>